<?xml version="1.0" encoding="utf-8"?>
<svg width="1125px" height="301px" viewBox="0 0 1125 301" version="1.1" xmlns:xlink="http://www.w3.org/1999/xlink" xmlns="http://www.w3.org/2000/svg">
  <desc>Created with Lunacy</desc>
  <defs>
    <filter filterUnits="userSpaceOnUse" color-interpolation-filters="sRGB" id="filter_1">
      <feFlood flood-opacity="0" result="BackgroundImageFix" />
      <feBlend mode="normal" in="SourceGraphic" in2="BackgroundImageFix" result="shape" />
      <feColorMatrix in="SourceAlpha" type="matrix" values="0 0 0 0 0 0 0 0 0 0 0 0 0 0 0 0 0 0 127 0" result="hardAlpha" />
      <feOffset dx="22" dy="26" />
      <feGaussianBlur stdDeviation="10" />
      <feComposite in2="hardAlpha" operator="arithmetic" k2="-1" k3="1" />
      <feColorMatrix type="matrix" values="0 0 0 0 0.6156863 0 0 0 0 0.1411765 0 0 0 0 0.2078431 0 0 0 1 0" />
      <feBlend mode="normal" in2="shape" result="effect0_innerShadow" />
    </filter>
  </defs>
  <g filter="url(#filter_1)">
    <path d="M0 0L1125 0L1119 123.5L872.5 124.395Q871.757 124.397 870.992 124.42Q870.227 124.443 869.441 124.485Q868.655 124.528 867.85 124.59Q867.045 124.653 866.223 124.735Q865.401 124.817 864.562 124.918Q863.724 125.02 862.872 125.141Q862.019 125.262 861.155 125.402Q860.29 125.542 859.415 125.701Q858.539 125.86 857.655 126.037Q856.771 126.214 855.88 126.409Q854.989 126.605 854.093 126.818Q853.197 127.031 852.297 127.261Q851.397 127.492 850.496 127.739Q849.595 127.986 848.694 128.249Q847.793 128.513 846.894 128.792Q845.996 129.071 845.101 129.366Q844.206 129.66 843.317 129.969Q842.428 130.278 841.547 130.601Q840.666 130.924 839.794 131.26Q838.922 131.596 838.062 131.945Q837.201 132.294 836.353 132.655Q835.506 133.016 834.673 133.387Q833.84 133.759 833.023 134.142Q832.206 134.524 831.408 134.916Q830.609 135.308 829.83 135.709Q829.051 136.109 828.294 136.518Q827.536 136.927 826.801 137.343Q826.067 137.759 825.356 138.181Q824.646 138.604 823.961 139.031Q823.276 139.459 822.619 139.891Q821.961 140.324 821.332 140.76Q820.703 141.196 820.103 141.635L635.578 276.775Q634.731 277.395 633.841 278.012Q632.952 278.628 632.022 279.239Q631.093 279.849 630.125 280.453Q629.156 281.057 628.152 281.654Q627.148 282.25 626.109 282.836Q625.07 283.423 623.999 284Q622.928 284.576 621.826 285.141Q620.725 285.706 619.596 286.258Q618.467 286.81 617.313 287.349Q616.158 287.887 614.98 288.41Q613.803 288.934 612.604 289.441Q611.406 289.948 610.189 290.439Q608.972 290.929 607.74 291.401Q606.507 291.873 605.261 292.327Q604.015 292.78 602.758 293.213Q601.502 293.647 600.237 294.059Q598.972 294.472 597.701 294.862Q596.431 295.253 595.157 295.622Q593.883 295.99 592.609 296.335Q591.335 296.68 590.063 297.002Q588.791 297.323 587.524 297.62Q586.257 297.916 584.997 298.188Q583.737 298.459 582.487 298.705Q581.237 298.951 580 299.171Q578.762 299.39 577.54 299.583Q576.317 299.776 575.112 299.942Q573.907 300.107 572.722 300.246Q571.537 300.384 570.374 300.495Q569.212 300.606 568.074 300.689Q566.936 300.771 565.825 300.826Q564.714 300.881 563.632 300.907Q562.55 300.934 561.5 300.932L0 300L0 0Z" id="top" fill="#9D2435" stroke="none" />
  </g>
</svg>